<?xml version="1.0" encoding="UTF-8"?>
<svg id="Camada_1" data-name="Camada 1" xmlns="http://www.w3.org/2000/svg" viewBox="0 0 512 512">
  <defs>
    <style>
      .cls-1 {
        fill: #149cd0;
      }

      .cls-2 {
        fill: #173c69;
      }
    </style>
  </defs>
  <path class="cls-1" d="M397.12,506.53l-136.95.95-83.28-127.65c-17.55-1.39-32.87-1.45-51.49-.11l.26,127.32H4.89s.09-425.11.09-425.11l221.3.49c28.32.06,54.12,6.3,79.02,17.31,43.75,18.95,72.01,58.15,75.98,105.66,8.8,66.01-19.63,125.91-83,153.51l98.83,147.62ZM256.27,261.72c11.11-19.27,9.74-41.35-1.57-59.02-10.33-11.67-24.89-18.73-40.97-18.76l-88.65-.14.03,101.24,81.33-.1c19.42-.02,37.93-7.11,49.83-23.22Z"/>
  <path class="cls-2" d="M453.34,118.45c2.81,5.74-9.02,6.99-9.88,9.79l-7.02,22.77c-1.63,5.3-3.91,10.33-9.98,10.78l-1.44-53.14c-.11-4-.73-7.54-2.91-10.9l-39.96,14.33-8.96,18.76c-1.87,3.91-4.7,7.5-8.88,6.53l-1.34-21.14-3.01.12c-.91.04-1.26-.62-.61-1.29l2.06-2.11-15.9-16.52c4.01-3.34,8.13-2.78,12.14-1.59l19.17,5.71,37.45-20.54c-2.38-5.17-6.04-8.67-9.97-12.37l-35.44-33.37c4.41-2.99,9.09-2.34,13.67-.21l22.36,10.45,7.59-3.32c2.5-1.09,4.78-1.12,6.32.65,1.32,1.51-.12,4.37-1.61,6.42,7.01,10.15,17.04-2.01,20.35,2.35,1.27,1.67.82,4.23-1.47,6.81l12.79,6.25,17.95-7.83c9.37-4.09,24.95-7.2,28.02-2.33s-8.26,13.54-17.44,18.44l-19.27,10.28c-4.24,2.26-3.72,9.96-5.25,13.94,3.15-.19,5.49.43,6.43,2.35,3.04,6.22-14.56,5.77-11.59,18.25,2.26-.11,4.94.23,5.65,1.67Z"/>
  <path class="cls-2" d="M327.68,469.06c-65.88-29.67-173.46-92.95-192.44-166.88-22.28-91.94,100.06-143.51,168.9-168.9,22.61-8.18,45.55-15.33,68.61-21.93-66.6,23.74-136.11,49.75-189.26,97.55-30.64,28.76-46.79,64.2-25.69,103.91,23.88,43.89,74.27,75.61,117.35,99.13,18.09,9.62,36.66,18.44,55.63,26.14,2.67,1.07,5.38,2.14,7.9,3.05,0,0-11,27.91-11,27.91h0Z"/>
  <path class="cls-1" d="M381.29,205.4c-3.98-47.5-32.23-86.71-75.98-105.66-24.89-11.01-50.7-17.25-79.02-17.31l-107.38-.24v177.14h6.21l-.03-75.53,88.65.14c16.08.02,30.65,7.09,40.97,18.76,11.31,17.67,12.68,39.75,1.57,59.02-4.78,6.47-10.64,11.46-17.19,15.15v86.17h61.96l-2.76-4.12c63.37-27.6,91.79-87.5,83-153.51Z"/>
</svg>