<?xml version="1.0" encoding="UTF-8"?>
<svg id="Camada_1" xmlns="http://www.w3.org/2000/svg" version="1.1" viewBox="0 0 512 512">
  <!-- Generator: Adobe Illustrator 30.4.0, SVG Export Plug-In . SVG Version: 2.1.4 Build 226)  -->
  <defs>
    <style>
      .st0 {
        fill: #149cd0;
      }

      .st1 {
        fill: #173c69;
      }
    </style>
  </defs>
  <path class="st0" d="M274.3,445.4l-91,.6-55.3-84.8c-11.7-.9-21.8-1-34.2,0l.2,84.6H13.7s0-282.5,0-282.5l147,.3c18.8,0,36,4.2,52.5,11.5,29.1,12.6,47.8,38.6,50.5,70.2,5.8,43.9-13,83.7-55.1,102l65.7,98.1ZM180.7,282.8c7.4-12.8,6.5-27.5-1-39.2-6.9-7.8-16.5-12.4-27.2-12.5h-58.9c0,0,0,67.2,0,67.2h54c12.9,0,25.2-4.8,33.1-15.5Z"/>
  <path class="st1" d="M443.2,170.2c4.1,7.8-12.1,10-13.2,13.9l-8.7,31.6c-2,7.4-5,14.4-13.3,15.3l-4.2-73.1c-.3-5.5-1.3-10.4-4.5-14.9l-54.4,21.4-11.5,26.2c-2.4,5.5-6.2,10.5-12,9.3l-2.7-29-4.1.3c-1.3,0-1.8-.8-.9-1.7l2.7-3-22.6-22.1c5.4-4.8,11.1-4.2,16.6-2.7l26.6,7.1,50.7-29.8c-3.5-7-8.7-11.7-14.2-16.6l-50.1-44.4c5.9-4.3,12.4-3.6,18.8-.8l31.2,13.5,10.3-4.9c3.4-1.6,6.5-1.7,8.7.6,1.9,2,0,6-2,8.9,10.1,13.7,23.4-3.5,28.1,2.4,1.8,2.2,1.3,5.8-1.7,9.4l17.9,8.1,24.4-11.5c12.7-6,34-10.9,38.5-4.4,4.4,6.5-10.8,19-23.2,26.1l-26.1,14.9c-5.7,3.3-4.7,13.9-6.6,19.4,4.3-.4,7.6.4,8.9,3,4.4,8.4-19.8,8.5-15.2,25.6,3.1-.2,6.8.1,7.8,2.1Z"/>
  <path class="st1" d="M323.4,464.1c-62.4-23.7-195.3-74.6-215.3-143-12.9-48,37.3-80.9,73.7-100.3,38.8-20.1,80.3-34.3,122-46.8-20.7,6.8-41.2,14.1-61.4,22.3-44.1,18.3-145.5,62.4-127.2,122.7,20.3,60.9,140.6,105.3,198,125.6,4.3,1.5,11.2,3.9,15.6,5.5,0,0-5.5,14-5.5,14h0Z"/>
  <path class="st0" d="M263.8,245.4c-2.6-31.6-21.4-57.6-50.5-70.2-16.5-7.3-33.7-11.5-52.5-11.5l-71.4-.2v117.7h4.1v-50.2s58.9,0,58.9,0c10.7,0,20.4,4.7,27.2,12.5,7.5,11.7,8.4,26.4,1,39.2-3.2,4.3-7.1,7.6-11.4,10.1v57.3h41.2l-1.8-2.7c42.1-18.3,61-58.1,55.1-102Z"/>
</svg>