<?xml version="1.0" encoding="UTF-8"?>
<svg id="Camada_1" data-name="Camada 1" xmlns="http://www.w3.org/2000/svg" viewBox="0 0 512 512">
  <defs>
    <style>
      .cls-1 {
        fill: #149cd0;
      }

      .cls-2 {
        fill: #fff;
      }

      .cls-3 {
        fill: #173c69;
      }
    </style>
  </defs>
  <rect class="cls-2" width="512" height="512" rx="74.04" ry="74.04"/>
  <g>
    <path class="cls-1" d="M389.97,471.66l-124.79.87-75.89-116.32c-16-1.26-29.95-1.32-46.92-.1l.24,116.02H32.55s.09-387.38.09-387.38l201.66.45c25.81.06,49.32,5.74,72,15.78,39.87,17.27,65.61,52.99,69.24,96.28,8.01,60.15-17.89,114.74-75.63,139.89l90.06,134.52ZM261.62,248.58c10.13-17.56,8.88-37.68-1.43-53.79-9.41-10.64-22.68-17.07-37.34-17.09l-80.78-.13.03,92.26,74.11-.09c17.7-.02,34.56-6.48,45.41-21.16Z"/>
    <path class="cls-3" d="M441.2,118.02c2.56,5.23-8.22,6.37-9.01,8.92l-6.4,20.75c-1.49,4.83-3.56,9.41-9.1,9.83l-1.32-48.43c-.1-3.65-.67-6.87-2.65-9.93l-36.41,13.06-8.16,17.09c-1.7,3.56-4.28,6.84-8.1,5.95l-1.22-19.26-2.74.11c-.83.03-1.15-.56-.55-1.17l1.87-1.92-14.48-15.05c3.65-3.04,7.41-2.53,11.06-1.45l17.46,5.2,34.13-18.72c-2.17-4.71-5.5-7.9-9.09-11.28l-32.29-30.41c4.02-2.73,8.29-2.14,12.45-.19l20.38,9.52,6.91-3.02c2.27-.99,4.35-1.02,5.76.59,1.2,1.38-.11,3.98-1.47,5.85,6.39,9.25,15.53-1.83,18.54,2.14,1.15,1.52.75,3.86-1.34,6.2l11.65,5.7,16.36-7.14c8.54-3.72,22.73-6.56,25.53-2.12s-7.53,12.34-15.89,16.8l-17.56,9.37c-3.86,2.06-3.39,9.08-4.78,12.7,2.87-.17,5,.39,5.86,2.14,2.77,5.67-13.27,5.25-10.56,16.63,2.06-.1,4.5.21,5.15,1.52Z"/>
    <path class="cls-3" d="M326.21,438.76c-59.8-26.99-156.44-84.56-175.02-150.91-16.64-61.15,38.03-102.3,85.83-127.27,41.57-21.39,85.98-36.2,130.74-49.01-20.65,7.18-41.12,14.85-61.2,23.35-44.93,19.32-107.68,49.98-132.94,93.09-.36.7-2,3.54-2.32,4.15-.24.49-.91,2.05-1.16,2.58,0,0-1.55,3.42-1.55,3.42-.69,2.11-1.86,4.93-2.36,7.05-2.03,7.02-2.69,14.41-2.18,21.66.64,7.26,2.56,14.46,5.36,21.2,18.46,42.23,70.36,75.11,109.99,96.39,16.47,8.69,33.37,16.67,50.63,23.63,2.42.96,4.9,1.94,7.17,2.75,0,0-11,27.91-11,27.91h0Z"/>
    <path class="cls-1" d="M375.54,197.26c-3.62-43.29-29.37-79.01-69.24-96.28-22.68-10.04-46.2-15.72-72-15.78l-97.85-.22v161.42h5.66l-.02-68.82,80.78.13c14.65.02,27.93,6.46,37.34,17.09,10.31,16.11,11.56,36.22,1.43,53.79-4.36,5.9-9.7,10.44-15.66,13.8v78.52h56.46l-2.52-3.76c57.74-25.15,83.65-79.73,75.63-139.89Z"/>
  </g>
</svg>